<svg id="Laag_1" data-name="Laag 1" xmlns="http://www.w3.org/2000/svg" viewBox="0 0 272.53 39.18">
  <defs>
    <style>
      .cls-1 {
        fill: #ed5237;
      }

      .cls-2 {
        fill: #fcd305;
      }

      .cls-3 {
        fill: #dee4dc;
      }

      .cls-4 {
        fill: #8bacb4;
      }

      .cls-5 {
        fill: #b1c5c6;
      }
    </style>
  </defs>
  <g>
    <path class="cls-1" d="M190,19.25c0-5.77,0-11.54,0-17.32,0-1.46.38-2,1.91-1.94a70.51,70.51,0,0,0,7.27,0c1.6-.08,1.88.55,1.85,2-.09,3.63,0,7.27-.06,10.91,0,1.25.29,1.76,1.65,1.73,3.92-.08,7.85-.07,11.77,0,1.25,0,1.58-.45,1.56-1.62-.05-3.71,0-7.42,0-11.12,0-1.33.26-1.92,1.74-1.85,2.57.11,5.14.08,7.71,0,1.12,0,1.48.35,1.48,1.46q0,17.85,0,35.71c0,1.06-.27,1.54-1.44,1.51-2.64-.07-5.28-.08-7.92,0-1.22,0-1.59-.38-1.57-1.59.06-3.84,0-7.7.05-11.54,0-1.42-.25-2-1.84-2-3.78.12-7.56.09-11.34,0-1.37,0-1.86.31-1.82,1.75.1,3.85,0,7.7.07,11.55,0,1.4-.39,1.86-1.8,1.8a65.3,65.3,0,0,0-7.27,0c-1.74.11-2-.65-2-2.13C190.05,30.8,190,25,190,19.25Z" transform="translate(0 0.24)"/>
    <path class="cls-2" d="M272.53,38.66c-3.86,0-7.27,0-10.69,0-1,0-1.37-.51-1.82-1.18q-2.56-3.81-5.18-7.59c-.85-1.24-5.36-2.21-6.57-1.41-.57.38-.41,1-.41,1.56,0,2.42-.05,4.84,0,7.27,0,1-.31,1.36-1.34,1.34-2.78-.05-5.56,0-8.35,0-.83,0-1.28-.14-1.27-1.16,0-5.41.06-10.83,0-16.25,0-1.55.94-1.27,1.83-1.28,5.34-.05,10.69,0,16-.17,4-.14,5.93-2.13,5.9-5.53s-2.25-5.54-6.17-5.61c-5.28-.09-10.56-.07-15.84,0-1.4,0-1.89-.37-1.75-1.77.22-2.25-.95-5.26.48-6.54,1.24-1.11,4.2-.38,6.4-.34,5.2.11,10.42-.44,15.59.47,9.68,1.7,14.76,10.22,11.4,19a11.55,11.55,0,0,1-5.29,6.21c-1.09.6-1.18,1.05-.46,2.06C267.5,31.27,269.89,34.82,272.53,38.66Z" transform="translate(0 0.24)"/>
    <path class="cls-3" d="M149,38.65c-3.51,0-6.91,0-10.32,0-1.23,0-1.23-1-1.52-1.72q-4.91-12.15-9.77-24.32c-.19-.46-.38-.92-.58-1.42-.87.4-.88,1.26-1.14,1.91-3.17,7.84-6.34,15.68-9.41,23.55-.57,1.45-1.23,2.15-2.89,2a55.75,55.75,0,0,0-6.84,0c-1.79.09-2.23-.29-1.41-2.06,2.61-5.68,5.09-11.42,7.61-17.15,2.61-5.91,5.25-11.81,7.78-17.76A2.39,2.39,0,0,1,123.2,0c2.49.13,5,.07,7.48,0a1.77,1.77,0,0,1,2,1.19q8,18.24,16.11,36.46A6.71,6.71,0,0,1,149,38.65Z" transform="translate(0 0.24)"/>
    <path class="cls-3" d="M166.3,0c5.14,0,10.27.08,15.41,0,1.65,0,2.09.49,2,2.05a33.53,33.53,0,0,0,0,4.91c.07,1.29-.32,1.75-1.67,1.7-2.78-.1-5.57.06-8.34-.07-1.56-.07-1.87.47-1.86,1.92.07,8.69,0,17.39.08,26.08,0,1.7-.48,2.18-2.12,2.08a43,43,0,0,0-6.62,0c-2,.18-2.3-.63-2.28-2.4.08-8.48,0-17,.08-25.44,0-1.74-.36-2.37-2.21-2.26-2.69.17-5.41,0-8.12.08-1.24,0-1.6-.38-1.55-1.57.08-1.85.1-3.71,0-5.55C149,.24,149.55,0,150.68,0,155.89.07,161.1,0,166.3,0Z" transform="translate(0 0.24)"/>
    <path class="cls-4" d="M31.66,15.24c-2.49,7.59-4.82,14.54-7,21.52-.47,1.5-1.18,2-2.71,1.92a39.65,39.65,0,0,0-5.34,0c-1.76.11-2.05-.48-1.53-2.09,2.58-7.93,5.06-15.88,7.61-23.81,1.19-3.73,2.5-7.41,3.69-11.14A2,2,0,0,1,28.64,0c2.2.11,4.42.11,6.63,0,1.41-.07,2.16.42,2.31,1.82a1.59,1.59,0,0,0,.07.2c1.08,3.61,3.31,7.34,3,10.8-.51,4.9-2.93,9.61-4.55,14.39,0,.1-.21.14-.51.32Z" transform="translate(0 0.24)"/>
    <path class="cls-4" d="M45.58,38.65c-5.34,0-5.31,0-3.66-5C45.34,23.14,48.76,12.67,52.1,2.17c.5-1.59,1.19-2.34,3-2.19a47.28,47.28,0,0,0,6.41,0c2-.11,1.61.85,1.21,2.07q-4.81,14.81-9.6,29.61c-.5,1.56-1.13,3.09-1.47,4.68-.4,1.88-1.37,2.6-3.26,2.32A18.4,18.4,0,0,0,45.58,38.65Z" transform="translate(0 0.24)"/>
    <path class="cls-5" d="M84.83,8.45c-4.41,0-8.82-.07-13.23,0-1.72,0-2.23-.53-2.09-2.17a29.37,29.37,0,0,0,0-4.69C69.4.25,70,0,71.21,0Q84.88.06,98.53,0c1.28,0,1.78.35,1.71,1.68a48.57,48.57,0,0,0,0,5.12c.07,1.32-.46,1.71-1.74,1.7C93.94,8.42,89.39,8.45,84.83,8.45Z" transform="translate(0 0.24)"/>
    <path class="cls-5" d="M84.72,38.67c-4.48,0-9-.05-13.44,0-1.4,0-1.87-.41-1.77-1.8.15-2.12-.66-4.88.39-6.21s4-.43,6.12-.45c7.33,0,14.65,0,22,0,1.54,0,2.44.22,2.24,2.07-.22,2,.82,4.69-.39,6s-3.91.36-5.95.41C90.84,38.72,87.78,38.67,84.72,38.67Z" transform="translate(0 0.24)"/>
    <path class="cls-5" d="M85,15c4.35,0,8.71.09,13.06,0,1.84-.06,2.37.57,2.21,2.31a46,46,0,0,0,0,4.7c0,.89-.32,1.26-1.25,1.25q-14.13,0-28.25,0c-1,0-1.21-.43-1.19-1.29,0-1.64.1-3.29,0-4.92s.32-2.1,2-2.06C76,15.06,80.48,15,85,15Z" transform="translate(0 0.24)"/>
    <path class="cls-4" d="M9.32,29.83Q4.76,15.72.18,1.62C-.23.38,0,0,1.34,0,4.12.07,6.9.05,9.68,0a1.58,1.58,0,0,1,1.78,1.37c1.06,3.62,2.22,7.2,3.33,10.8a2.24,2.24,0,0,1,.15,1.45c-1.75,5.4-3.47,10.81-5.2,16.22Z" transform="translate(0 0.24)"/>
  </g>
</svg>
