<svg id="Laag_1" data-name="Laag 1" xmlns="http://www.w3.org/2000/svg" viewBox="0 0 409.6 409.6">
  <defs>
    <style>
      .cls-1 {
        fill: #fdfdfd;
      }

      .cls-2 {
        fill: #fbfbfb;
      }
    </style>
  </defs>
  <g>
    <path d="M-.7,221.38V187.85c.88-.18.74-.91.83-1.54.75-5.53,1.31-11.09,2.3-16.57C12,116.17,38.68,72.81,82.29,40.54c46.6-34.48,99.12-46.77,156.32-37,49.94,8.5,91.11,32.89,123.06,72,34.25,42,49.3,90.35,45.56,144.47C405.17,249.86,397,278,382,303.88c-33.58,57.89-83.47,92.43-149.75,103-4.75.76-9.64.52-14.28,2.06H187.65c-.22-.86-.94-.75-1.58-.8a196.73,196.73,0,0,1-26.35-4C77,386,13.47,317.65,1.46,234,.85,229.78,1.07,225.4-.7,221.38Zm272.3-16.59c.21-5.76-2.64-10.06-6.54-13.95q-40.65-40.58-81.24-81.2c-8.75-8.74-18.94-9.56-26.31-2.14S151,125,159.8,133.8q34,34,68,67.92c2.35,2.33,2.34,3.47,0,5.8Q193,242.07,158.4,276.87c-7.56,7.59-7.81,17.94-.88,24.87s17.2,6.84,24.59-.52q42.15-41.89,84.08-84C269.59,213.81,271.69,209.76,271.6,204.79Z" transform="translate(0.78 0.59)"/>
    <path class="cls-1" d="M218,408.94c4.64-1.54,9.53-1.3,14.28-2.06,66.28-10.57,116.17-45.11,149.75-103,15-25.84,23.16-54,25.22-83.89,3.74-54.12-11.31-102.52-45.56-144.47C329.72,36.39,288.55,12,238.61,3.5c-57.2-9.73-109.72,2.56-156.32,37C38.68,72.81,12,116.17,2.43,169.74c-1,5.48-1.55,11-2.3,16.57-.09.63,0,1.36-.83,1.54Q-.7,95.3-.77,2.75c0-2.6.34-3.34,3.2-3.34q201.66.15,403.32,0c2.49,0,3.05.57,3.05,3.06q-.1,201.66,0,403.32c0,2.86-.74,3.2-3.34,3.19Q311.73,408.88,218,408.94Z" transform="translate(0.78 0.59)"/>
    <path class="cls-1" d="M-.7,221.38c1.77,4,1.55,8.4,2.16,12.61,12,83.66,75.54,152,158.26,170.14a196.73,196.73,0,0,0,26.35,4c.64.05,1.36-.06,1.58.8q-92.58,0-185.16.07c-2.73,0-3.27-.53-3.27-3.27Q-.63,313.57-.7,221.38Z" transform="translate(0.78 0.59)"/>
    <path class="cls-2" d="M271.6,204.79c.09,5-2,9-5.41,12.43q-42,42-84.08,84c-7.39,7.36-17.74,7.38-24.59.52s-6.68-17.28.88-24.87q34.6-34.78,69.41-69.35c2.35-2.33,2.36-3.47,0-5.8q-34.12-33.84-68-67.92c-8.78-8.78-9.66-18.88-2.29-26.3s17.56-6.6,26.31,2.14q40.62,40.61,81.24,81.2C269,194.73,271.81,199,271.6,204.79Z" transform="translate(0.78 0.59)"/>
  </g>
</svg>
