<svg id="Laag_1" data-name="Laag 1" xmlns="http://www.w3.org/2000/svg" viewBox="0 0 409.6 409.6">
  <defs>
    <style>
      .cls-1 {
        fill: #fdfdfd;
      }

      .cls-2 {
        fill: #fbfbfb;
      }
    </style>
  </defs>
  <g>
    <path d="M408.74,187.05v33.52c-.89.19-.75.92-.83,1.55-.75,5.52-1.31,11.08-2.3,16.57-9.61,53.56-36.26,96.93-79.86,129.19-46.6,34.49-99.12,46.78-156.32,37-49.94-8.49-91.11-32.88-123.06-72C12.12,291-2.93,242.56.81,188.43,2.87,158.57,11,130.39,26,104.54c33.58-57.88,83.47-92.42,149.75-103,4.75-.76,9.64-.51,14.28-2h30.32c.23.86,1,.75,1.59.8a196.71,196.71,0,0,1,26.35,4C331,22.43,394.57,90.78,406.58,174.43,407.18,178.65,407,183,408.74,187.05Zm-272.3,16.59c-.21,5.76,2.64,10.06,6.54,14q40.65,40.56,81.24,81.19c8.75,8.74,18.94,9.57,26.31,2.15s6.49-17.53-2.29-26.31q-34-34-68-67.91c-2.36-2.34-2.34-3.48,0-5.81q34.83-34.54,69.41-69.34c7.56-7.59,7.81-18,.88-24.87s-17.2-6.84-24.6.51q-42.13,41.9-84.07,84C138.45,194.61,136.34,198.67,136.44,203.64Z" transform="translate(0.78 0.59)"/>
    <path class="cls-1" d="M190.06-.51C185.42,1,180.53.78,175.78,1.54,109.5,12.12,59.61,46.66,26,104.54c-15,25.85-23.16,54-25.22,83.89C-2.93,242.56,12.12,291,46.37,332.91c31.95,39.13,73.12,63.52,123.06,72,57.2,9.74,109.72-2.55,156.32-37,43.6-32.26,70.25-75.63,79.86-129.19,1-5.49,1.55-11.05,2.3-16.57.08-.63-.06-1.36.83-1.55q0,92.55.07,185.11c0,2.59-.34,3.34-3.2,3.33Q204,408.88,2.29,409c-2.49,0-3-.56-3-3.05q.11-201.66,0-403.32c0-2.86.74-3.2,3.34-3.2Q96.31-.44,190.06-.51Z" transform="translate(0.78 0.59)"/>
    <path class="cls-1" d="M408.74,187.05c-1.77-4-1.56-8.4-2.16-12.62-12-83.65-75.54-152-158.26-170.14A196.71,196.71,0,0,0,222,.29c-.64,0-1.36.06-1.59-.8q92.6,0,185.17-.08c2.73,0,3.27.54,3.27,3.27Q408.67,94.87,408.74,187.05Z" transform="translate(0.78 0.59)"/>
    <path class="cls-2" d="M136.44,203.64c-.1-5,2-9,5.41-12.43q42-42,84.07-84c7.4-7.35,17.74-7.37,24.6-.51s6.68,17.28-.88,24.87Q215,166.33,180.23,200.9c-2.35,2.33-2.37,3.47,0,5.81q34.13,33.84,68,67.91c8.78,8.78,9.66,18.89,2.29,26.31s-17.56,6.59-26.31-2.15Q183.6,258.19,143,217.59C139.08,213.7,136.23,209.4,136.44,203.64Z" transform="translate(0.78 0.59)"/>
  </g>
</svg>
