<svg id="Laag_1" data-name="Laag 1" xmlns="http://www.w3.org/2000/svg" viewBox="0 0 384 384">
  <defs>
    <style>
      .cls-1 {
        fill: #223843;
      }

      .cls-2 {
        fill: #1e2d35;
      }

      .cls-3 {
        fill: #fefefe;
      }

      .cls-4 {
        fill: #e8ecf4;
      }

      .cls-5 {
        fill: #fe9c01;
      }

      .cls-6 {
        fill: #fcb913;
      }

      .cls-7 {
        fill: #4855b6;
      }
    </style>
  </defs>
  <path class="cls-1" d="M106.07,436.23V405.55c1.55-3.21,1.17-6.74,1.67-10.13,7.72-51.85,32-94.3,73.57-126.12,45-34.4,96.13-46.86,151.58-36.12C399.21,246,446,284.79,473.85,346.29a166.49,166.49,0,0,1,13.78,51.77c-1.1-1-2.22-2-3.28-3.05Q454,364.67,423.61,334.32c-1.18-1.18-2.07-2.93-4.15-2.81l.09,0a1.29,1.29,0,0,0-.95-1.48l.21,0-1-.91c-1-1.38-2-2.8-3.14-4.13-13.23-16.16-30-24.95-51.17-24.84-2,.06-4,0-6,.2-17.71,1.79-32.23,9.68-43.85,23.07-1.55-.42-3.11-.81-4.65-1.27-8.34-2.5-16.82-4.07-25.58-3.52-36.23.81-62.14,17.89-78.43,49.94a6.49,6.49,0,0,1-5.19,4C165.62,378.89,144,413.42,153,447c3.87,14.33,12.21,25.44,24.06,34.1,0,.11-.14.24-.11.31a3,3,0,0,0,.32.47l0-.19c.5,1.81,2,2.79,3.25,4q61.58,61.51,123.15,123c1.2,1.2,2.85,2.13,3,4.14H282.66c-.47-.77-1.27-.68-2-.75-22.95-2.06-45-7.67-65.58-18Q128,550.28,109,454.53C107.76,448.46,107.74,442.22,106.07,436.23Z" transform="translate(-106 -228.89)"/>
  <path class="cls-2" d="M419.46,331.51c2.08-.12,3,1.63,4.15,2.81Q454,364.64,484.35,395c1.06,1.05,2.18,2,3.28,3.05a27,27,0,0,1,.63,2.91,195.53,195.53,0,0,1-1.61,52.1c-6.6,38-22.93,71.32-49.45,99.37Q392,600.28,326.82,610.69c-5,.79-10.1.66-15,2.13H306.6c-.1-2-1.75-2.94-3-4.14q-61.56-61.51-123.15-123c-1.21-1.21-2.75-2.19-3.25-4,1.39-.1,2.25,1,3.29,1.57,8.56,5,17.8,8.07,27.67,8.16,25,.25,50.12.06,75.17.05,1.37.05,2.74.15,4.1.15,22.54,0,45.09,0,67.63,0a65.71,65.71,0,0,0,14.41-1.56c26.52-5.81,46.2-30.46,46.4-57.65a71.29,71.29,0,0,0-4.46-24.37c14-15.38,18.86-33.45,16-53.83C426.29,346.12,423,338.78,419.46,331.51Z" transform="translate(-106 -228.89)"/>
  <path class="cls-4" d="M411.46,408.05a71.29,71.29,0,0,1,4.46,24.37c-.2,27.19-19.88,51.84-46.4,57.65a65.71,65.71,0,0,1-14.41,1.56c-22.54-.07-45.09,0-67.63,0-1.36,0-2.73-.1-4.1-.15q0-86.37.05-172.75c8.76-.55,17.24,1,25.58,3.52,1.54.46,3.1.85,4.65,1.27,1.33.65,2.63,1.37,4,1.95a86.88,86.88,0,0,1,30.07,21.5c6.61,7.2,11.45,15.54,15.72,24.26.27.73.94.66,1.53.77a66.32,66.32,0,0,1,17.27,5.47C395.71,384.08,405.13,394.59,411.46,408.05Z" transform="translate(-106 -228.89)"/>
  <path class="cls-3" d="M283.43,318.69q0,86.37-.05,172.75c-25.05,0-50.12.2-75.17-.05-9.87-.09-19.11-3.19-27.67-8.16-1-.61-1.9-1.67-3.29-1.57l0,.19c0-.1.13-.23.1-.3a2.8,2.8,0,0,0-.31-.48C165.21,472.41,156.87,461.3,153,447c-9.05-33.55,12.62-68.08,46.81-74.36a6.49,6.49,0,0,0,5.19-4C221.29,336.58,247.2,319.5,283.43,318.69Z" transform="translate(-106 -228.89)"/>
  <path class="cls-5" d="M411.46,408.05c-6.33-13.46-15.75-24-29.22-30.62A66.32,66.32,0,0,0,365,372c-.59-.11-1.26,0-1.53-.77q0-35.49,0-71c21.13-.11,37.94,8.68,51.17,24.84,1.1,1.33,2.1,2.75,3.14,4.13.24.42.34,1,1,.91l-.21,0c0,.7.17,1.28.95,1.48l-.09,0c3.51,7.27,6.83,14.61,8,22.71C430.32,374.6,425.43,392.67,411.46,408.05Z" transform="translate(-106 -228.89)"/>
  <path class="cls-6" d="M363.48,300.21q0,35.49,0,71c-4.27-8.72-9.11-17.06-15.72-24.26a86.88,86.88,0,0,0-30.07-21.5c-1.36-.58-2.66-1.3-4-1.95,11.62-13.39,26.14-21.28,43.85-23.07C359.49,300.21,361.49,300.27,363.48,300.21Z" transform="translate(-106 -228.89)"/>
  <path class="cls-7" d="M419.55,331.53c-.78-.2-.95-.78-.95-1.48A1.29,1.29,0,0,1,419.55,331.53Z" transform="translate(-106 -228.89)"/>
  <path class="cls-7" d="M418.81,330.09c-.68.07-.78-.49-1-.91Z" transform="translate(-106 -228.89)"/>
  <path class="cls-7" d="M177.06,481.07a2.8,2.8,0,0,1,.31.48c0,.07-.06.2-.1.3a3,3,0,0,1-.32-.47C176.92,481.31,177,481.18,177.06,481.07Z" transform="translate(-106 -228.89)"/>
</svg>
